<?xml version="1.0" standalone="no"?>
<!DOCTYPE svg PUBLIC "-//W3C//DTD SVG 20010904//EN"
 "http://www.w3.org/TR/2001/REC-SVG-20010904/DTD/svg10.dtd">
<svg version="1.0" xmlns="http://www.w3.org/2000/svg"
 width="71.000000pt" height="71.000000pt" viewBox="0 0 71.000000 71.000000"
 preserveAspectRatio="xMidYMid meet">
<metadata>
Created by potrace 1.11, written by Peter Selinger 2001-2013
</metadata>
<g transform="translate(0.000000,71.000000) scale(0.100000,-0.100000)"
fill="#000000" stroke="none">
<path d="M478 659 c-25 -7 -96 -45 -108 -58 -9 -11 -125 -86 -154 -101 -30
-15 -86 -66 -118 -107 -30 -38 -48 -117 -37 -159 22 -76 131 -152 230 -159
128 -8 204 63 254 240 9 33 21 67 26 75 65 108 73 206 19 255 -21 19 -71 25
-112 14z"/>
</g>
</svg>
