<svg width="71" height="35" viewBox="0 0 71 35" fill="none" xmlns="http://www.w3.org/2000/svg">
<path fill-rule="evenodd" clip-rule="evenodd" d="M35.384 34.9879C33.9369 34.9951 32.6469 34.8509 31.3611 34.6804C28.7211 34.3308 26.1153 33.7856 23.5401 33.1135C19.8334 32.146 16.2065 30.9408 12.7031 29.3846C10.5119 28.4121 8.39125 27.3075 6.40336 25.959C5.41941 25.2918 4.48255 24.5676 3.60491 23.7677C2.55745 22.8102 1.65556 21.7299 0.979133 20.4777C-0.238857 18.2208 -0.326621 15.9161 0.750091 13.58C1.23315 12.5333 1.91314 11.6207 2.69517 10.7808C3.93884 9.44511 5.37517 8.34556 6.90783 7.36803C9.29243 5.84751 11.8362 4.64094 14.4512 3.57564C17.5622 2.3077 20.7588 1.29521 24.0011 0.422565C25.9412 -0.099023 27.8085 0.0986235 29.6429 0.854248C30.5562 1.23028 31.4139 1.71191 32.2673 2.2021C32.9658 2.6031 33.653 3.02551 34.3636 3.40154C35.2156 3.85177 35.3982 3.84393 36.2295 3.35159C37.0372 2.8721 37.8249 2.35765 38.6241 1.8646C39.6166 1.25311 40.6377 0.701553 41.7593 0.354066C43.0929 -0.0604931 44.4351 -0.118288 45.795 0.21921C49.7758 1.20602 53.6652 2.46539 57.4305 4.09723C59.8365 5.13969 62.1569 6.34484 64.3275 7.82469C65.6061 8.69662 66.8027 9.66773 67.863 10.8008C68.538 11.5236 69.1366 12.3028 69.614 13.169C70.284 14.3863 70.6614 15.6835 70.6058 17.087C70.5594 18.2722 70.2162 19.376 69.6639 20.4156C69.2001 21.2897 68.6086 22.0731 67.9401 22.8023C66.4595 24.4185 64.7099 25.6921 62.8483 26.8238C60.3938 28.3179 57.7901 29.5023 55.1151 30.5362C51.1422 32.0725 47.058 33.227 42.8824 34.0646C41.2813 34.3864 39.6708 34.6526 38.0461 34.8167C37.1143 34.9123 36.1796 35.04 35.384 34.9879ZM34.6512 16.6517C35.7843 16.6425 36.7439 16.6203 37.7051 16.5847C39.9405 16.5019 42.1789 16.5511 44.4129 16.432C46.266 16.3328 48.1226 16.3092 49.9785 16.2514C50.0676 16.2486 50.1568 16.2422 50.2467 16.2365C51.6524 16.1565 53.0587 16.0773 54.4637 15.9953C55.3121 15.9453 56.1612 15.9011 57.0081 15.834C58.4109 15.7227 59.8144 15.6028 61.2158 15.4737C62.64 15.341 64.062 15.1919 65.4862 15.0491C65.5512 15.042 65.619 15.0263 65.6789 15.0006C65.7724 14.96 65.8109 14.8729 65.7816 14.7809C65.7067 14.5411 65.5383 14.3563 65.3885 14.1615C64.5601 13.0848 63.5119 12.2457 62.4159 11.468C60.4373 10.0637 58.2903 8.96205 56.0755 7.98095C52.4237 6.36268 48.6327 5.16324 44.7633 4.19926C44.2745 4.07796 43.7922 4.09009 43.3027 4.20426C42.5513 4.3805 41.8721 4.71942 41.2163 5.10687C40.5042 5.52856 39.8107 5.98022 39.1079 6.4169C38.4421 6.83003 37.7657 7.22105 37.0329 7.51003C35.9013 7.95812 34.7682 7.97953 33.6273 7.55498C33.0607 7.34377 32.5085 7.1026 31.9833 6.79793C31.1135 6.29132 30.2423 5.78828 29.3704 5.28311C28.8267 4.96844 28.2551 4.71586 27.6636 4.50322C26.8188 4.19926 25.969 4.15431 25.0935 4.38621C23.5359 4.7972 21.9868 5.23459 20.4563 5.73763C17.4559 6.72372 14.5254 7.88177 11.7241 9.35021C10.4341 10.0252 9.18612 10.7701 8.00595 11.6242C7.18824 12.215 6.40336 12.8444 5.72052 13.5907C5.54 13.7876 5.37446 13.9996 5.21534 14.2157C5.12044 14.3463 5.18252 14.4819 5.34948 14.5083C6.23283 14.6467 7.11404 14.8001 8.00095 14.9093C9.88752 15.1433 11.7748 15.3553 13.6628 15.5693C14.2172 15.6328 14.7752 15.6792 15.3324 15.7249C16.1123 15.7862 16.8929 15.8376 17.6735 15.8961C19.2333 16.0146 20.7916 16.1551 22.3535 16.2472C24.2494 16.3592 26.1495 16.4548 28.0475 16.5147C30.3058 16.5839 32.5648 16.6096 34.6512 16.6517ZM65.5191 19.3039C65.3735 19.1947 65.285 19.2219 65.1973 19.2297C64.4844 19.2989 63.7731 19.366 63.061 19.4345C62.483 19.4901 61.905 19.5472 61.3264 19.6C60.5251 19.6728 59.7238 19.7534 58.9225 19.8119C58.0078 19.879 57.0916 19.9125 56.1783 19.9839C54.7298 20.0981 53.2799 20.2051 51.8272 20.2351C51.7152 20.2372 51.6024 20.2343 51.4925 20.25C50.2025 20.4291 48.901 20.3392 47.6074 20.4513C46.3623 20.559 45.1058 20.5162 43.8542 20.584C41.9791 20.686 40.0982 20.6054 38.2217 20.7195C37.3512 20.7723 36.4764 20.7417 35.6052 20.7459C33.6151 20.7559 31.6251 20.741 29.6365 20.6418C28.7653 20.5982 27.8919 20.6197 27.02 20.5818C25.6586 20.5233 24.2979 20.437 22.9358 20.3656C21.8198 20.3064 20.6996 20.2836 19.5886 20.1815C18.8972 20.118 18.2044 20.1073 17.5144 20.0403C16.7138 19.9618 15.9125 19.8947 15.1105 19.8234C14.4427 19.7648 13.7734 19.717 13.1069 19.6464C12.0623 19.5365 11.0177 19.4202 9.97528 19.2911C8.68879 19.1327 7.40444 18.96 6.12009 18.7902C5.76547 18.7438 5.4137 18.686 5.05837 18.6375C4.9706 18.6253 4.86714 18.6146 4.8072 18.6917C4.72372 18.7987 4.79436 18.9029 4.85216 18.9971C4.92066 19.1113 4.99843 19.2219 5.0762 19.3303C5.62277 20.0752 6.2842 20.7096 6.99845 21.2882C8.5732 22.5597 10.3092 23.5772 12.108 24.487C14.3271 25.6079 16.6211 26.5562 18.9657 27.3796C23.0671 28.8209 27.2483 29.9512 31.5573 30.5748C32.6433 30.731 33.7371 30.806 34.8288 30.8823C35.8142 30.9515 36.7967 30.8274 37.7721 30.731C39.7315 30.5362 41.6659 30.1745 43.5845 29.7307C46.6384 29.0229 49.6381 28.1345 52.5771 27.0393C55.3042 26.0218 57.9685 24.8623 60.4937 23.4017C61.833 22.6275 63.1052 21.7584 64.2625 20.7274C64.7306 20.3121 65.153 19.8562 65.5191 19.3039Z" fill="black"/>
</svg>
