<svg fill="none" height="50" viewBox="0 0 50 50" width="50" xmlns="http://www.w3.org/2000/svg"><path d="m46.4219 3.5768c-2.3064-2.30641-5.3732-3.5768-8.6358-3.5768-3.2625 0-6.3293 1.27039-8.6357 3.5768l-25.5736 25.5736c-2.30641 2.3064-3.5768 5.3732-3.5768 8.6357 0 3.2626 1.27039 6.3294 3.5768 8.6358 2.30708 2.3064 5.37386 3.5781 8.6364 3.5781 3.2625 0 6.3293-1.2717 8.6357-3.5781l25.573-25.573c2.3064-2.3064 3.5781-5.3732 3.5781-8.6357 0-3.26254-1.2717-6.32932-3.5781-8.6364zm-27.5012 40.9168c-1.7917 1.7911-4.174 2.7792-6.7075 2.7792-2.53413 0-4.91644-.9881-6.70817-2.7792-1.79173-1.791-2.77782-4.1733-2.77782-6.7075 0-2.5341.98609-4.9164 2.77782-6.7075l4.15074-4.1507 13.41563 13.415zm6.079-6.0789-13.4157-13.415 13.4157-13.4157 13.415 13.4157zm19.4939-19.494-4.1507 4.1507-13.415-13.41563 4.1507-4.15074c1.7911-1.79173 4.1734-2.77782 6.7075-2.77782 2.5342 0 4.9165.98609 6.7075 2.77782 1.7911 1.79173 2.7792 4.17404 2.7792 6.70817 0 2.5335-.9881 4.9158-2.7792 6.7075zm-18.5298 5.1149c.5326.5326.5326 1.3955 0 1.9282-.5327.5326-1.3956.5326-1.9282 0-.5327-.5327-.5327-1.3956 0-1.9282.5326-.5327 1.3955-.5327 1.9282 0zm-3.8352 3.8351c.532.5327.532 1.3969 0 1.9296-.5326.5313-1.3969.5313-1.9295 0-.532-.5327-.532-1.3969 0-1.9296.5326-.5327 1.3969-.5327 1.9295 0zm5.7421-5.7421c-.5327-.5326-.5327-1.3969 0-1.9295.5327-.532 1.3969-.532 1.9296 0 .5313.5326.5313 1.3969 0 1.9295-.5327.532-1.3969.532-1.9296 0zm0 7.6717c-.5327-.5327-.5327-1.3969 0-1.9296s1.3969-.5327 1.9296 0c.5313.5327.5313 1.3969 0 1.9296-.5327.5313-1.3969.5313-1.9296 0zm-5.7421-9.6012c.532.5326.532 1.3969 0 1.9295-.5326.532-1.3969.532-1.9295 0-.532-.5326-.532-1.3969 0-1.9295.5326-.532 1.3969-.532 1.9295 0zm9.5786 5.764c-.5314-.532-.5314-1.3949 0-1.9275.5326-.5327 1.3955-.5327 1.9282 0 .5327.5326.5327 1.3955 0 1.9275-.5327.5333-1.3956.5333-1.9282 0zm-5.7434-9.5992c.5326.532.5326 1.3956 0 1.9276-.5327.5327-1.3956.5327-1.9282 0-.5327-.532-.5327-1.3956 0-1.9276.5326-.5326 1.3955-.5326 1.9282 0zm0 15.3433c.5326.5326.5326 1.3955 0 1.9295-.5327.5314-1.3956.5314-1.9282 0-.5327-.534-.5327-1.3969 0-1.9295.5326-.5314 1.3955-.5314 1.9282 0zm-7.6723-7.6716c.5327.5326.5327 1.3955 0 1.9275-.532.5333-1.3949.5333-1.9276 0-.5326-.532-.5326-1.3949 0-1.9275.5327-.5327 1.3956-.5327 1.9276 0z" fill="#000"/></svg>