<svg width="39" height="51" viewBox="0 0 39 51" fill="none" xmlns="http://www.w3.org/2000/svg">
<path d="M36.9968 0.333284H1.99681C1.82284 0.332905 1.65072 0.368842 1.49144 0.438795C1.33216 0.508749 1.18923 0.611179 1.07181 0.739533C0.954097 0.867548 0.864393 1.01872 0.808431 1.18337C0.752469 1.34803 0.73148 1.52255 0.746808 1.69578L5.1218 49.1957C5.14996 49.5074 5.29399 49.7971 5.52543 50.0078C5.75687 50.2184 6.05888 50.3345 6.3718 50.3332H32.6218C32.9347 50.3345 33.2367 50.2184 33.4682 50.0078C33.6996 49.7971 33.8436 49.5074 33.8718 49.1957L38.2468 1.69578C38.2629 1.523 38.2429 1.34874 38.1881 1.1841C38.1332 1.01947 38.0446 0.868067 37.928 0.739533C37.8099 0.610397 37.666 0.507508 37.5055 0.437526C37.3451 0.367545 37.1718 0.332031 36.9968 0.333284ZM34.8968 10.7833C33.9086 10.4711 32.8768 10.3192 31.8405 10.3333C28.3093 10.3333 26.4843 11.8083 24.878 13.1145C23.4093 14.302 22.1405 15.3333 19.4968 15.3333C16.853 15.3333 15.578 14.302 14.1093 13.1083C12.503 11.8083 10.678 10.3333 7.15305 10.3333C6.11736 10.3203 5.08605 10.47 4.09681 10.777L3.36556 2.83328H35.628L34.8968 10.7833Z" fill="black"/>
</svg>
