<svg width="54" height="51" viewBox="0 0 54 51" fill="none" xmlns="http://www.w3.org/2000/svg">
<path d="M15.5209 43.5619C15.3551 44.0268 15.0297 44.4375 14.5687 44.7037C9.85013 47.4279 3.87455 46.0084 1.24175 41.4482C-1.39104 36.8881 0.367376 31.0033 5.08597 28.279C5.14317 28.246 5.20125 28.2159 5.26005 28.1887C9.96081 25.0942 15.0884 13.1264 15.0884 2.65517C15.0884 1.4649 16.0534 0.5 17.2436 0.5C18.4339 0.5 19.3988 1.4649 19.3988 2.65517C19.3988 14.7511 13.4137 28.4627 7.11613 32.1067C7.05688 32.141 6.99668 32.1722 6.93571 32.2002C4.46602 33.824 3.61512 36.9384 4.97462 39.2931C6.38873 41.7424 9.71036 42.5315 12.4135 40.9708C12.7002 40.8053 13.009 40.7131 13.3184 40.6885C11.899 39.0295 10.8619 38.431 9.485 38.431C8.29474 38.431 7.32983 37.4661 7.32983 36.2758C7.32983 35.0856 8.29474 34.1207 9.485 34.1207C12.9512 34.1207 15.0737 35.7649 17.8537 39.4718C18.06 39.7469 18.8277 40.7868 19.0057 41.0247C21.7101 44.6382 23.6037 46.0533 26.819 46.1916C28.0082 46.2428 28.9307 47.2483 28.8795 48.4374C28.8284 49.6266 27.8229 50.5491 26.6337 50.498C21.8157 50.2907 18.9588 48.1557 15.5548 43.6074C15.545 43.5942 15.5336 43.579 15.5209 43.5619ZM40.1344 40.6885C40.4437 40.7131 40.7526 40.8053 41.0392 40.9708C43.7424 42.5315 47.064 41.7424 48.4781 39.2931C49.8375 36.9386 48.9869 33.8247 46.5179 32.2008C46.4565 32.1726 46.3959 32.1413 46.3363 32.1067C40.0387 28.4627 34.0536 14.7511 34.0536 2.65517C34.0536 1.4649 35.0185 0.5 36.2088 0.5C37.399 0.5 38.3639 1.4649 38.3639 2.65517C38.3639 13.1258 43.491 25.0927 48.1915 28.1881C48.2507 28.2155 48.3092 28.2458 48.3668 28.279C53.0854 31.0033 54.8438 36.8881 52.211 41.4482C49.5782 46.0084 43.6026 47.4279 38.884 44.7037C38.4231 44.4375 38.0976 44.0269 37.9319 43.5619C37.9192 43.579 37.9078 43.5942 37.898 43.6074C34.494 48.1557 31.6371 50.2907 26.8191 50.498C25.6299 50.5491 24.6244 49.6266 24.5732 48.4374C24.5221 47.2483 25.4446 46.2428 26.6338 46.1916C29.8491 46.0533 31.7427 44.6382 34.4471 41.0247C34.6251 40.7868 35.3928 39.7469 35.5991 39.4718C38.3791 35.7649 40.5016 34.1207 43.9678 34.1207C45.158 34.1207 46.1229 35.0856 46.1229 36.2758C46.1229 37.4661 45.158 38.431 43.9678 38.431C42.5909 38.431 41.5537 39.0295 40.1344 40.6885Z" fill="black"/>
</svg>
