<svg width="50" height="50" viewBox="0 0 50 50" fill="none" xmlns="http://www.w3.org/2000/svg">
<path d="M31.689 36.491C31.205 36.491 30.7305 36.2575 30.441 35.8255L23.7535 25.835C23.588 25.588 23.5 25.2975 23.5 25.0005V8.3335C23.5 7.505 24.1715 6.8335 25 6.8335C25.8285 6.8335 26.5 7.505 26.5 8.3335V24.5445L32.934 34.1565C33.395 34.845 33.2105 35.7765 32.522 36.2375C32.2655 36.409 31.9755 36.491 31.689 36.491Z" fill="black"/>
<path d="M25 2.5C37.406 2.5 47.5 12.5935 47.5 25C47.5 37.406 37.406 47.5 24.9985 47.5C12.5925 47.5 2.5 37.406 2.5 25C2.5 12.5935 12.5935 2.5 25 2.5ZM25 0C11.193 0 0 11.193 0 25C0 38.807 11.193 50.0005 25 50C38.8065 50 50 38.8075 50 25C50 11.1925 38.8065 0 25 0Z" fill="black"/>
</svg>
